<svg xmlns="http://www.w3.org/2000/svg" viewBox="0 0 720 320" role="img" aria-labelledby="title desc">
  <title id="title">J3IT Logo Proof 03 - Secure Operations</title>
  <desc id="desc">A security-oriented shield mark with J3IT typography.</desc>
  <rect width="720" height="320" fill="#ffffff"/>
  <g transform="translate(82 48)">
    <path d="M106 0l92 34v72c0 68-38 112-92 138C52 218 14 174 14 106V34L106 0z" fill="#10243E"/>
    <path d="M106 28l61 23v54c0 45-24 75-61 96-37-21-61-51-61-96V51l61-23z" fill="none" stroke="#19B8D8" stroke-width="14" stroke-linejoin="round"/>
    <path d="M68 104h76M106 66v76" stroke="#35B779" stroke-width="16" stroke-linecap="round"/>
    <circle cx="106" cy="104" r="14" fill="#ffffff"/>
  </g>
  <g transform="translate(310 96)">
    <text x="0" y="78" font-family="Arial, Helvetica, sans-serif" font-size="94" font-weight="900" fill="#10243E">J3IT</text>
    <text x="3" y="124" font-family="Arial, Helvetica, sans-serif" font-size="25" font-weight="800" fill="#35B779">SECURE OPERATIONS</text>
    <text x="3" y="157" font-family="Arial, Helvetica, sans-serif" font-size="20" font-weight="600" fill="#506174">managed support • networks • cloud</text>
  </g>
</svg>
