<svg xmlns="http://www.w3.org/2000/svg" viewBox="0 0 720 320" role="img" aria-labelledby="title desc">
  <title id="title">J3IT 03C Managed Shield</title>
  <desc id="desc">Secure Operations variant with a managed service status grid inside a shield.</desc>
  <rect width="720" height="320" fill="#ffffff"/>
  <g transform="translate(78 44)">
    <path d="M116 0l94 34v75c0 65-36 108-94 136-58-28-94-71-94-136V34L116 0z" fill="#073b3a"/>
    <rect x="65" y="70" width="102" height="88" rx="14" fill="#e8fff8"/>
    <path d="M86 94h60M86 118h60M86 142h60" stroke="#073b3a" stroke-width="8" stroke-linecap="round"/>
    <circle cx="70" cy="94" r="7" fill="#00a896"/>
    <circle cx="70" cy="118" r="7" fill="#4d908e"/>
    <circle cx="70" cy="142" r="7" fill="#00a896"/>
    <path d="M47 48l69-25 69 25v62c0 50-25 84-69 108-44-24-69-58-69-108V48z" fill="none" stroke="#00a896" stroke-width="9" stroke-linejoin="round"/>
  </g>
  <g transform="translate(318 94)">
    <text x="0" y="92" font-family="DejaVu Sans, Segoe UI, sans-serif" font-size="108" font-weight="800" fill="#073b3a">J3IT</text>
    <rect x="7" y="112" width="218" height="10" rx="5" fill="#00a896"/>
  </g>
</svg>
