<svg xmlns="http://www.w3.org/2000/svg" viewBox="0 0 720 320" role="img" aria-labelledby="title desc">
  <title id="title">J3IT 03A Sentinel Core</title>
  <desc id="desc">Secure Operations variant with a shield and protected core node.</desc>
  <rect width="720" height="320" fill="#ffffff"/>
  <g transform="translate(78 42)">
    <path d="M118 0l96 36v78c0 64-36 108-96 136-60-28-96-72-96-136V36L118 0z" fill="#1e1e1e"/>
    <path d="M118 30l64 24v56c0 43-23 73-64 94-41-21-64-51-64-94V54l64-24z" fill="none" stroke="#0066ff" stroke-width="13" stroke-linejoin="round"/>
    <circle cx="118" cy="112" r="30" fill="#ffffff"/>
    <circle cx="118" cy="112" r="14" fill="#00ffff"/>
    <path d="M118 62v28M118 134v34M68 112h28M140 112h28" stroke="#00ffff" stroke-width="9" stroke-linecap="round"/>
    <path d="M78 78l20 20M158 78l-20 20M78 146l20-20M158 146l-20-20" stroke="#35b779" stroke-width="7" stroke-linecap="round"/>
  </g>
  <g transform="translate(320 94)">
    <text x="0" y="92" font-family="DejaVu Sans, Segoe UI, sans-serif" font-size="108" font-weight="800" fill="#1e1e1e">J3IT</text>
    <rect x="7" y="112" width="218" height="10" rx="5" fill="#0066ff"/>
  </g>
</svg>
