<svg xmlns="http://www.w3.org/2000/svg" viewBox="0 0 720 320" role="img" aria-labelledby="title desc">
  <title id="title">J3IT 03D Continuity Lock</title>
  <desc id="desc">Secure Operations variant combining shield, lock, and continuity loop.</desc>
  <rect width="720" height="320" fill="#ffffff"/>
  <g transform="translate(80 44)">
    <path d="M114 0l92 34v75c0 64-35 107-92 134-57-27-92-70-92-134V34L114 0z" fill="#251c38"/>
    <rect x="70" y="104" width="88" height="62" rx="12" fill="#f8fafc"/>
    <path d="M88 104V82c0-18 12-32 26-32s26 14 26 32v22" fill="none" stroke="#38bdf8" stroke-width="12" stroke-linecap="round"/>
    <circle cx="114" cy="135" r="9" fill="#7c3aed"/>
    <path d="M65 76c24-28 73-28 97 0M162 156c-24 28-73 28-97 0" fill="none" stroke="#38bdf8" stroke-width="8" stroke-linecap="round"/>
    <path d="M48 50l66-24 66 24v58c0 49-24 82-66 104-42-22-66-55-66-104V50z" fill="none" stroke="#7c3aed" stroke-width="8" stroke-linejoin="round"/>
  </g>
  <g transform="translate(318 94)">
    <text x="0" y="92" font-family="DejaVu Sans, Segoe UI, sans-serif" font-size="108" font-weight="800" fill="#251c38">J3IT</text>
    <rect x="7" y="112" width="218" height="10" rx="5" fill="#7c3aed"/>
  </g>
</svg>
