<svg xmlns="http://www.w3.org/2000/svg" viewBox="0 0 720 320" role="img" aria-labelledby="title desc">
  <title id="title">J3IT 03B Zero Trust Gate</title>
  <desc id="desc">Secure Operations variant using a gateway shield and access lanes.</desc>
  <rect width="720" height="320" fill="#ffffff"/>
  <g transform="translate(74 50)">
    <path d="M112 0l88 32v78c0 60-34 100-88 126-54-26-88-66-88-126V32L112 0z" fill="#20242c"/>
    <path d="M68 82h88M68 118h88M68 154h88" stroke="#f8fafc" stroke-width="12" stroke-linecap="round"/>
    <path d="M112 44v150" stroke="#f5b942" stroke-width="12" stroke-linecap="round"/>
    <circle cx="112" cy="82" r="12" fill="#f5b942"/>
    <circle cx="112" cy="118" r="12" fill="#5b6472"/>
    <circle cx="112" cy="154" r="12" fill="#f5b942"/>
    <path d="M42 47l70-25 70 25" fill="none" stroke="#f5b942" stroke-width="9" stroke-linecap="round" stroke-linejoin="round"/>
  </g>
  <g transform="translate(316 94)">
    <text x="0" y="92" font-family="DejaVu Sans, Segoe UI, sans-serif" font-size="108" font-weight="800" fill="#20242c">J3IT</text>
    <rect x="7" y="112" width="218" height="10" rx="5" fill="#f5b942"/>
  </g>
</svg>
